<?xml version="1.0" encoding="UTF-8" standalone="no"?>
<!-- Created with Inkscape (http://www.inkscape.org/) -->

<svg
   version="1.1"
   id="svg1"
   width="1812"
   height="1288.0125"
   viewBox="0 0 1812 1288.0125"
   sodipodi:docname="Gemini_Generated_Image_hw5fx5hw5fx5hw5f.png"
   xmlns:inkscape="http://www.inkscape.org/namespaces/inkscape"
   xmlns:sodipodi="http://sodipodi.sourceforge.net/DTD/sodipodi-0.dtd"
   xmlns="http://www.w3.org/2000/svg"
   xmlns:svg="http://www.w3.org/2000/svg">
  <defs
     id="defs1" />
  <sodipodi:namedview
     id="namedview1"
     pagecolor="#ffffff"
     bordercolor="#000000"
     borderopacity="0.25"
     inkscape:showpageshadow="2"
     inkscape:pageopacity="0.0"
     inkscape:pagecheckerboard="0"
     inkscape:deskcolor="#d1d1d1"
     inkscape:export-bgcolor="#ffffff00">
    <inkscape:page
       x="0"
       y="0"
       width="1812"
       height="1288.0125"
       id="page2"
       margin="0"
       bleed="0" />
  </sodipodi:namedview>
  <g
     inkscape:groupmode="layer"
     inkscape:label="Image"
     id="g1"
     transform="translate(-118,-380.01339)">
    <g
       id="g151896">
      <path
         style="fill:#f38d22"
         d="m 1204.4354,1433.1045 c 0.2844,-0.4601 -0.895,-0.6722 -2.6208,-0.4713 -4.2859,0.499 -12.352,-3.3872 -17.5303,-8.446 -4.6311,-4.5242 -9.7294,-13.5849 -8.8838,-15.7884 0.2952,-0.7694 0.1009,-1.3988 -0.4319,-1.3988 -0.6211,0 -0.9067,-50.8598 -0.796,-141.75 0.095,-77.9625 0.4475,-138.825 0.7834,-135.25 l 0.6108,6.5 0.4666,-7.5 c 0.2566,-4.125 0.2663,-9.3 0.022,-11.5 l -0.445,-4 -0.6479,5 c -0.4469,3.4497 -0.6965,0.902 -0.8049,-8.2166 l -0.1571,-13.2166 -4.6678,-5.2834 c -2.5673,-2.9059 -5.6504,-6.1834 -6.8514,-7.2834 -1.201,-1.1 -2.4723,-2.816 -2.8252,-3.8134 -0.3528,-0.9973 -1.0443,-1.5644 -1.5366,-1.2601 -1.0269,0.6346 -36.7488,-36.2656 -36.369,-37.5687 0.1375,-0.4718 -0.3125,-0.7453 -1,-0.6078 -0.6875,0.1375 -1.1264,-0.3459 -0.9752,-1.0743 0.1579,-0.7613 -0.2042,-1.0283 -0.852,-0.628 -1.7209,1.0636 -14.9228,-12.485 -14.9228,-15.3147 0,-2.8025 16.6987,-20.5626 18.6351,-19.8195 0.7301,0.2801 1.0544,-0.059 0.7685,-0.8042 -0.6184,-1.6114 2.1343,-4.01295 3.5774,-3.1211 0.5877,0.3633 0.9449,0.064 0.7938,-0.66387 -0.1512,-0.72838 0.2877,-1.21183 0.9752,-1.07433 0.6875,0.1375 1.1375,-0.3125 1,-1 -0.1375,-0.6875 0.3125,-1.1375 1,-1 0.6875,0.1375 1.1375,-0.3125 1,-1 -0.1375,-0.6875 0.3459,-1.12635 1.0743,-0.97522 0.7284,0.15112 1.0845,-0.11325 0.7914,-0.5875 -0.7487,-1.21152 6.8232,-8.39804 7.8576,-7.45762 0.4661,0.42369 0.5109,0.18727 0.1,-0.52537 -0.4934,-0.8551 2.4074,-4.51299 8.5305,-10.7568 7.3245,-7.4689 9.7118,-9.34058 11.3373,-8.88878 1.3606,0.37815 1.63,0.27248 0.7941,-0.31151 -0.9248,-0.64606 0.4875,-2.63637 5.25,-7.39884 l 6.515,-6.51503 0.012,-154.41666 c 0.013,-163.20554 -0.064,-160.32858 4.4615,-167.23574 0.96,-1.46507 2.1573,-2.40917 2.6608,-2.09801 0.5034,0.31115 0.8509,0.19479 0.7722,-0.25859 -0.3964,-2.28174 0.4763,-3.52489 4.7826,-6.813 2.5789,-1.96916 5.3023,-3.34493 6.0519,-3.05726 0.7496,0.28766 1.1105,0.11444 0.8018,-0.38493 -0.8337,-1.34898 4.9404,-2.84578 13.8171,-3.58172 6.4034,-0.5309 7.7112,-0.40482 7.058,0.68047 -0.5941,0.98712 -0.3438,0.9603 0.9665,-0.10359 1.5365,-1.2476 1.8872,-1.2476 2.6766,0 0.6308,0.9969 0.9132,1.05365 0.9238,0.1857 0.02,-1.62454 2.6975,-1.62454 3.353,0 0.4035,1 0.5202,1 0.5834,0 0.051,-0.80567 1.6995,-1.25 4.6379,-1.25 3.3811,0 4.365,0.32297 3.8081,1.25 -0.5617,0.93495 -0.3876,0.98484 0.6909,0.19794 2.2036,-1.60769 7.8444,-1.76997 9.6843,-0.27859 1.1791,0.95573 1.43,0.97845 0.8906,0.0806 -0.5037,-0.83843 -0.073,-1.25 1.3081,-1.25 1.1324,0 2.0659,0.5625 2.0743,1.25 0.011,0.91536 0.2465,0.88507 0.879,-0.11315 0.7291,-1.15087 0.948,-1.15087 1.4057,0 0.3849,0.96784 0.565,1.00065 0.6211,0.11315 0.043,-0.6875 0.7805,-1.25 1.6379,-1.25 0.9811,0 1.2806,0.46339 0.8081,1.25 -0.5959,0.99187 -0.438,0.99679 0.7647,0.0238 1.197,-0.96827 1.7941,-0.96827 2.8387,0 0.8372,0.77599 1.0879,0.80624 0.6828,0.0824 -0.4094,-0.73169 0.2237,-1.09199 1.7574,-1 1.3185,0.0791 2.1292,0.5938 1.8014,1.1438 -0.3278,0.55 0.1253,0.41565 1.0069,-0.29856 1.0312,-0.83536 1.8257,-0.93816 2.2274,-0.28821 0.4095,0.6626 1.4924,0.68035 3.1462,0.0516 1.4363,-0.54611 2.2798,-0.56744 1.9598,-0.0496 -0.616,0.99668 2.0041,0.86159 3.0215,-0.15579 0.3475,-0.34747 1.6945,-0.22769 2.9935,0.26618 1.454,0.55281 2.5903,0.52827 2.9562,-0.0638 0.8893,-1.43883 2.7071,-1.16143 1.8887,0.28821 -0.5646,1 -0.4364,1 0.641,0 1.6075,-1.4921 3.3227,-1.66735 2.4467,-0.25 -0.3399,0.55 0.1101,1 1,1 0.8899,0 1.3643,-0.4105 1.0543,-0.91222 -0.6404,-1.03614 1.3488,-0.90466 3.1266,0.20665 0.6495,0.40601 1.4636,0.28085 1.809,-0.27812 0.955,-1.54516 6.7966,-1.31466 5.9224,0.23369 -0.5646,1 -0.4364,1 0.641,0 1.5573,-1.44549 3.3338,-1.68543 2.501,-0.33778 -0.6404,1.03614 1.3488,0.90466 3.1266,-0.20665 0.6495,-0.40601 1.4531,-0.29782 1.7857,0.24041 0.3885,0.6286 1.4634,0.58742 3.0053,-0.11515 1.3203,-0.60156 3.2168,-0.78055 4.2143,-0.39774 0.9976,0.3828 2.0388,0.70523 2.3138,0.7165 0.275,0.0113 1.0224,0.45407 1.661,0.98401 0.7626,0.63295 1.416,0.55076 1.9045,-0.23955 0.5098,-0.82489 0.302,-0.95121 -0.661,-0.40185 -1.1484,0.65513 -1.172,0.55113 -0.1295,-0.57045 0.9731,-1.04694 1.6988,-1.10698 3.0652,-0.25359 1.1673,0.72896 2.3767,0.78996 3.4751,0.17527 1.1981,-0.6705 1.6891,-0.56742 1.7,0.35688 0.011,0.96943 0.2462,0.93486 0.9238,-0.13601 0.7894,-1.2476 1.1401,-1.2476 2.6766,0 1.105,0.89723 1.4866,0.96688 1.0172,0.1857 -0.4772,-0.79439 -0.1612,-1.25 0.8671,-1.25 0.8899,0 1.3399,0.45 1,1 -0.6939,1.12271 1.7808,1.38588 2.8623,0.30439 1.0651,-1.06512 3.7233,-1.25185 3.0834,-0.21661 -0.31,0.50172 0.1378,0.91222 0.9953,0.91222 0.8574,0 1.559,-0.45 1.559,-1 0,-0.55 0.4766,-1 1.059,-1 0.5825,0 0.7809,0.45 0.441,1 -0.3399,0.55 -0.1415,1 0.441,1 0.5824,0 1.059,-0.45 1.059,-1 0,-0.55 0.4766,-1 1.059,-1 0.5825,0 0.8387,0.35659 0.5693,0.79241 -0.2694,0.43583 0.4859,0.86591 1.6784,0.95574 1.7176,0.12938 1.859,-0.0321 0.6807,-0.7771 -1.18,-0.74606 -1.0102,-0.94359 0.8216,-0.95574 1.5833,-0.0105 2.073,0.37757 1.5581,1.23469 -0.4377,0.72852 0.035,0.62422 1.1329,-0.25 1.098,-0.87422 1.5706,-0.97852 1.1329,-0.25 -0.413,0.6875 -0.2744,1.25 0.3081,1.25 0.5824,0 1.059,-0.375 1.059,-0.83333 0,-0.45834 0.675,-0.83334 1.5,-0.83334 0.825,0 1.5,0.36996 1.5,0.82214 0,0.45217 1.0926,0.7317 2.4279,0.62119 1.3354,-0.11052 2.2256,-0.52824 1.9784,-0.92828 -0.2472,-0.40004 0.429,-0.66116 1.5028,-0.58027 1.0738,0.0809 1.732,0.50365 1.4626,0.93948 -0.2694,0.43582 0.6884,0.79241 2.1283,0.79241 1.4907,0 2.3519,-0.4306 2,-1 -0.3399,-0.55 0.1101,-1 1,-1 1.0041,0 1.3503,0.47426 0.9123,1.25 -0.5646,1 -0.4364,1 0.641,0 1.7724,-1.6451 4.3021,-1.6451 3.3138,0 -0.5103,0.84936 -0.2087,0.81011 0.9409,-0.12244 1.3778,-1.11761 1.692,-1.1269 1.692,-0.05 0,1.02856 0.2667,1.05577 1.2,0.12244 1.4511,-1.45112 3.1654,-1.60018 2.3,-0.2 -0.3399,0.55 -0.1415,1 0.441,1 0.5824,0 1.059,-0.5051 1.059,-1.12244 0,-0.73143 0.5894,-0.64433 1.692,0.25 1.1496,0.93255 1.4512,0.9718 0.9409,0.12244 -0.4996,-0.83161 -0.09,-1.25 1.2247,-1.25 1.0867,0 2.2027,0.5625 2.4801,1.25 0.4035,1 0.5202,1 0.5834,0 0.049,-0.78173 1.5995,-1.25 4.1379,-1.25 2.4514,0 3.8143,0.39607 3.441,1 -0.3399,0.55 0.1101,1 1,1 1.0283,0 1.3443,-0.45561 0.8671,-1.25 -0.563,-0.93702 -0.3497,-0.92486 0.8519,0.0486 1.1321,0.9171 1.8021,0.97627 2.281,0.20144 0.4789,-0.77483 1.1489,-0.71566 2.281,0.20144 1.2016,0.97342 1.4149,0.98558 0.8519,0.0486 -0.4772,-0.79439 -0.1612,-1.25 0.8671,-1.25 0.8899,0 1.3399,0.45 1,1 -0.3399,0.55 -0.1415,1 0.441,1 0.5824,0 1.059,-0.45 1.059,-1 0,-0.55 2.0516,-1 4.559,-1 2.7847,0 4.3185,0.38919 3.941,1 -0.3733,0.60393 0.9896,1 3.441,1 2.2324,0 4.059,-0.45 4.059,-1 0,-1.22125 2.2225,-0.8777 3.2347,0.5 0.455,0.61931 0.7405,0.52413 0.75,-0.25 0.01,-0.6875 0.7169,-1.25 1.5743,-1.25 0.9811,0 1.2806,0.46339 0.8081,1.25 -0.4377,0.72852 0.035,0.62422 1.1329,-0.25 1.098,-0.87422 1.5706,-0.97852 1.1329,-0.25 -0.5226,0.87 0.027,1.25 1.8081,1.25 1.4074,0 2.559,-0.45 2.559,-1 0,-0.55 0.7875,-0.99311 1.75,-0.98469 1.4955,0.0131 1.5319,0.15626 0.25,0.98469 -0.825,0.53316 -1.0275,0.97627 -0.45,0.98469 0.5775,0.008 1.5508,-0.48548 2.1629,-1.09756 0.6464,-0.64641 1.6733,-0.76299 2.45,-0.27812 1.9088,1.19165 3.9484,1.38002 3.2828,0.30321 -0.3141,-0.50828 1.924,-0.91222 5.0543,-0.91222 3.4907,0 5.384,0.37866 5,1 -0.3399,0.55 -0.168,1 0.382,1 0.55,0 1.2375,-0.38435 1.5278,-0.85411 0.8798,-1.42345 13.6137,-1.3676 15.3856,0.0675 1.1402,0.92352 1.3816,0.94191 0.8552,0.0652 -0.5536,-0.92211 0.9801,-1.17407 6.258,-1.0281 3.8452,0.10635 6.457,0.52359 5.804,0.92719 -0.7043,0.43525 -0.3052,0.66738 0.9807,0.57052 1.1925,-0.0898 1.9083,-0.63241 1.5907,-1.20574 -0.3176,-0.57332 0.01,-0.50097 0.7225,0.16079 0.8277,0.76615 1.8984,0.8829 2.9475,0.32142 2.2115,-1.18355 13.2368,-1.14228 12.5019,0.0468 -0.3157,0.51071 0.1289,0.92857 0.9879,0.92857 1.4135,0 1.5378,38.76419 1.309,408.4965 l -0.2528,408.4966 137.5,0.26 c 75.625,0.1431 7.9941,0.3564 -150.2908,0.4741 -158.285,0.1176 -287.5582,-0.1626 -287.2738,-0.6227 z m 50.5842,-344.3545 c 0.032,-3.6726 0.041,-122.91645 0.01,-127 -0.016,-2.0625 -0.3663,-3.7461 -0.7788,-3.74133 -0.4125,0.005 -2.4075,1.57977 -4.4332,3.5 -2.0258,1.92023 -4.1633,3.49133 -4.75,3.49133 -0.5868,0 -0.9543,0.36611 -0.8168,0.81358 0.1375,0.44746 -2.1622,3.20615 -5.1104,6.13042 -4.1303,4.09679 -5.561,5.00008 -6.2347,3.93642 -0.4808,-0.75923 -0.8812,-1.79292 -0.8896,-2.29709 -0.01,-0.50416 -0.2768,-0.6552 -0.5963,-0.33564 -0.3196,0.31956 -0.1139,1.45388 0.457,2.5207 0.8458,1.58022 0.5236,2.43264 -1.7383,4.59965 -1.527,1.46298 -3.1202,2.31616 -3.5404,1.89596 -0.4202,-0.4202 -0.614,-0.089 -0.4306,0.736 0.2081,0.93638 -0.2914,1.39713 -1.3293,1.22623 -1.2242,-0.20158 -1.523,0.25985 -1.1334,1.75 0.5016,1.91814 -0.5505,2.59422 -3.204,2.05886 -0.55,-0.11097 -0.6615,0.13673 -0.2478,0.55043 1.0333,1.03335 -2.2711,4.52082 -3.5404,3.73639 -0.5614,-0.34701 -0.7475,-0.18877 -0.4136,0.35164 0.7027,1.13694 -10.5632,12.64455 -11.6045,11.85345 -0.3815,-0.2898 -0.455,-0.2133 -0.1632,0.1702 0.8199,1.0774 -14.7418,16.2832 -15.9572,15.5923 -0.5903,-0.3356 -0.7342,-0.2364 -0.3198,0.2203 0.4144,0.4568 0.03,1.9344 -0.8537,3.2835 -0.884,1.3491 -1.1927,2.1967 -0.686,1.8836 1.1024,-0.6813 27.5917,25.6108 26.8211,26.6215 -0.2942,0.3859 -0.2339,0.4756 0.1339,0.1994 1.0479,-0.7867 4.3588,2.6485 3.6531,3.7904 -0.3471,0.5616 -0.1426,0.719 0.4545,0.35 1.0794,-0.6671 2.6377,0.9523 2.7537,2.8618 0.034,0.55 0.7154,0.85 1.5154,0.6667 0.8,-0.1834 1.1209,2e-4 0.7132,0.408 -0.4078,0.4077 -0.2402,1.3452 0.3724,2.0833 0.851,1.0253 0.7449,1.342 -0.4496,1.342 -0.8599,0 -1.8384,0.4448 -2.1744,0.9885 -0.3629,0.5872 0.086,0.7212 1.105,0.3301 1.2612,-0.484 1.5277,-0.2822 1.0056,0.7615 -0.3907,0.7809 0.04,0.4074 0.958,-0.8301 1.7657,-2.3814 3.4243,-2.9583 3.4243,-1.191 0,0.5825 -0.5625,0.7379 -1.25,0.3454 -0.6875,-0.3926 0.024,0.6562 1.5813,2.3305 2.0512,2.2054 2.4645,3.1907 1.5,3.5757 -0.7901,0.3155 -0.5013,0.5636 0.7105,0.6105 2.4409,0.094 10.8365,8.334 9.7307,9.55 -0.4249,0.4673 -0.2857,0.5726 0.3093,0.2341 0.595,-0.3384 3.2582,1.5942 5.9182,4.2948 2.66,2.7006 5.1796,4.698 5.5991,4.4388 0.4195,-0.2593 1.0454,-0.014 1.3908,0.5449 1.1007,1.7809 2.5094,1.0939 2.5297,-1.2337 z"
         id="path151900" />
      <path
         style="display:inline;fill:#ed7b24"
         d="m 1504.7528,1024.5739 c 0.2404,-388.50046 0.1672,-408.44891 -1.5,-408.89191 -0.9641,-0.25615 68.2222,-0.40188 153.7472,-0.32386 l 155.5,0.14187 5.3189,2.9464 c 6.2122,3.44131 10.1153,7.59866 13.933,14.84052 L 1834.5,638.5 v 385 385 l -2.811,5.7244 c -3.5903,7.3113 -11.9467,14.9091 -18.8496,17.1385 -4.6033,1.4867 -19.0034,1.6371 -156.7042,1.6371 l -151.6352,10e-5 z"
         id="path151899" />
      <path
         style="display:inline;fill:#797e81"
         d="m 206.41652,1667.1351 c 0.29478,-0.477 -1.25335,-0.6605 -3.44028,-0.4079 -2.52705,0.2919 -3.97624,0.054 -3.97624,-0.653 0,-0.7038 -0.97291,-0.8681 -2.64915,-0.4474 -1.98122,0.4972 -2.45391,0.349 -1.87477,-0.5881 0.56228,-0.9098 0.21606,-1.0758 -1.2641,-0.606 -5.03246,1.5973 -29.36311,-9.8436 -37.07321,-17.4327 -2.51447,-2.475 -3.91959,-3.6 -3.12249,-2.5 1.43092,1.9747 1.42131,1.9762 -0.75993,0.1164 -1.21505,-1.0361 -1.92527,-2.3431 -1.57826,-2.9046 0.34701,-0.5614 0.18594,-0.7458 -0.35793,-0.4097 -0.54387,0.3362 -2.9759,-1.4992 -5.40451,-4.0786 -2.42861,-2.5794 -3.26016,-3.7974 -1.8479,-2.7067 1.41227,1.0908 0.51227,-0.011 -2,-2.4476 -2.51226,-2.4369 -3.8715,-4.0119 -3.02053,-3.5 0.85097,0.5119 0.40097,-0.1311 -1,-1.4289 -1.40097,-1.2979 -1.87222,-2.052 -1.04722,-1.6759 0.825,0.3762 0.6,-0.056 -0.5,-0.9608 -1.1,-0.9046 -1.8875,-2.063 -1.75,-2.5742 0.1375,-0.5112 -0.22656,-0.9294 -0.80902,-0.9294 -0.58246,0 -0.7809,-0.45 -0.44098,-1 0.33992,-0.55 0.15062,-1 -0.42066,-1 -1.4816,0 -5.2923,-7.8464 -4.46265,-9.1888 0.38078,-0.6161 0.25453,-0.8496 -0.28055,-0.5189 -0.92987,0.5746 -3.54015,-5.1265 -3.80471,-8.3099 -0.0694,-0.8347 -0.48737,-2.1021 -0.92891,-2.8165 -0.44153,-0.7144 -0.53663,-1.5651 -0.21133,-1.8904 0.3253,-0.3253 0.095,-1.1897 -0.51174,-1.9208 -0.60676,-0.7311 -0.83301,-2.0333 -0.50278,-2.8939 0.36894,-0.9614 0.18968,-1.3108 -0.46495,-0.9062 -0.70172,0.4336 -0.89795,-0.4039 -0.57489,-2.4538 0.26976,-1.7116 0.10066,-2.8712 -0.37578,-2.5767 -0.47644,0.2944 -0.76368,-2.1421 -0.6383,-5.4146 0.12538,-3.2724 -0.12095,-5.7342 -0.5474,-5.4707 C 118.34891,1574.9024 118,1326.9165 118,1023.559 118,720.20156 118.36401,472 118.80892,472 c 0.4449,0 0.63274,-2.475 0.41741,-5.5 -0.24393,-3.42688 0.005,-5.5 0.6597,-5.5 0.57816,0 0.79218,-0.675 0.4756,-1.5 -0.31659,-0.825 -0.23346,-2.2875 0.18473,-3.25 0.41818,-0.9625 0.84779,-2.2 0.95467,-2.75 0.10689,-0.55 0.29389,-1.225 0.41556,-1.5 0.12166,-0.275 0.39581,-1.84354 0.60921,-3.48563 0.2134,-1.6421 0.8602,-3.14304 1.43733,-3.33541 0.57713,-0.19238 0.79497,-0.76135 0.48408,-1.26437 C 124.13633,443.41157 124.3444,443 124.9096,443 c 0.5652,0 0.74028,-0.74882 0.38908,-1.66404 -0.46365,-1.20826 -0.27578,-1.43984 0.68589,-0.8455 0.90699,0.56056 1.08659,0.43369 0.5698,-0.40249 -0.4398,-0.71162 0.0172,-1.85002 1.09549,-2.72866 1.01758,-0.82919 1.21117,-1.17543 0.4302,-0.76942 -1.05481,0.54838 -1.24767,0.28927 -0.75,-1.00763 0.36847,-0.96021 0.66994,-1.96059 0.66994,-2.22306 0,-0.26248 0.40285,-0.22826 0.89522,0.076 0.49236,0.3043 1.16221,-0.14251 1.48854,-0.99292 0.39127,-1.01964 0.17154,-1.32868 -0.64521,-0.90748 -0.6812,0.35133 -0.11355,-0.33935 1.26145,-1.5348 1.375,-1.19545 1.94265,-1.88613 1.26145,-1.53484 -0.81675,0.4212 -1.03648,0.11216 -0.64521,-0.90748 0.32633,-0.85041 0.99618,-1.29722 1.48854,-0.99292 0.82834,0.51194 1.32672,-0.94417 0.98886,-2.88909 -0.0787,-0.45338 0.29538,-0.55328 0.83141,-0.22199 0.53603,0.33128 1.52086,-0.42277 2.1885,-1.67567 1.13968,-2.13875 1.0969,-2.19158 -0.69983,-0.86415 -1.05255,0.77762 0.028,-0.34738 2.40131,-2.5 2.37327,-2.15262 4.41799,-4.65596 4.54383,-5.56298 0.30535,-2.20083 2.66043,-4.95699 3.69127,-4.3199 0.45294,0.27993 2.27712,-1.29985 4.05375,-3.51062 1.77662,-2.21077 3.43592,-3.8139 3.68732,-3.5625 0.25139,0.2514 1.28625,-0.53627 2.29967,-1.75038 1.01343,-1.21412 1.85756,-1.82013 1.87586,-1.3467 0.0183,0.47344 0.96755,-0.20156 2.10946,-1.5 1.1419,-1.29843 1.78353,-1.68578 1.42584,-0.86078 -0.45932,1.05941 -0.24226,1.00408 0.73901,-0.1884 0.76415,-0.92862 2.03339,-1.82862 2.82054,-2 0.78715,-0.17138 1.88281,-0.84497 2.4348,-1.49686 3.1894,-3.76666 30.32735,-12.00792 36.53915,-11.09622 1.63046,0.2393 2.96447,0.063 2.96447,-0.39171 0,-1.10956 1634.7307,-1.07154 1635.4165,0.038 0.2939,0.47566 2.156,0.68615 4.1379,0.46774 1.9819,-0.2184 3.3566,0.002 3.0548,0.4907 -0.3018,0.48829 0.5627,0.67534 1.9211,0.41568 1.4935,-0.2855 2.4697,-0.007 2.4697,0.70347 0,0.64658 0.4746,0.88228 1.0546,0.52379 1.2914,-0.79811 16.9454,4.52835 16.9454,5.76587 0,0.48726 0.4137,0.63024 0.9194,0.31773 0.5056,-0.31252 1.5771,0.0895 2.3809,0.89336 0.8039,0.80386 1.7402,1.183 2.0807,0.84252 0.3404,-0.34047 0.619,-0.0675 0.619,0.60664 0,0.67413 0.45,0.94757 1,0.60765 0.55,-0.33992 1,-0.11492 1,0.5 0,0.61492 0.4532,0.83795 1.0071,0.49563 0.5538,-0.34231 1.276,0.0785 1.6047,0.93524 0.3288,0.85671 0.973,1.32576 1.4315,1.04235 0.4586,-0.2834 1.2978,0.28168 1.8648,1.25575 0.5671,0.97407 1.0448,1.38368 1.0615,0.91025 0.017,-0.47344 0.9647,0.20156 2.1066,1.5 1.1419,1.29843 1.7835,1.68578 1.4258,0.86078 -0.3577,-0.825 0.3223,-0.26018 1.511,1.25515 1.1887,1.51533 2.4955,2.54862 2.9039,2.29619 0.4085,-0.25243 3.1664,1.99525 6.1287,4.99485 2.9624,2.99959 4.9515,5.46382 4.4202,5.47605 -0.5312,0.0122 0.1592,0.95128 1.5342,2.08677 1.375,1.1355 1.825,1.76621 1,1.40158 -0.825,-0.36463 -0.3965,0.30464 0.9522,1.48727 1.3488,1.18263 2.5611,2.89209 2.6942,3.79879 0.1331,0.90671 0.9351,2.15538 1.7822,2.77483 0.8472,0.61945 1.2473,1.41928 0.8892,1.7774 -0.3581,0.35811 -0.1353,0.65112 0.4952,0.65112 1.4597,0 5.461,7.7476 4.6658,9.0343 -0.3283,0.53113 -0.094,0.9657 0.5212,0.9657 0.6149,0 0.8637,0.41157 0.5528,0.91459 -0.3109,0.50302 -0.092,1.07219 0.4854,1.26481 0.5779,0.19262 1.1264,1.35606 1.219,2.58541 0.093,1.22935 0.5708,2.23519 1.0626,2.23519 0.4918,0 0.6407,0.66059 0.3309,1.46797 -0.3099,0.80739 -0.1147,1.74526 0.4337,2.08416 0.5483,0.3389 0.7054,1.53467 0.3491,2.65726 -0.4534,1.42868 -0.2925,1.82153 0.5362,1.30934 0.8491,-0.52476 1.0452,0.14853 0.6935,2.38042 -0.3246,2.05969 -0.1283,2.88827 0.5807,2.45013 0.69,-0.42647 0.8706,0.10487 0.5075,1.49335 -0.31,1.18546 -0.1152,2.43252 0.4329,2.77125 0.5583,0.3451 0.7588,2.5562 0.456,5.02918 -0.4011,3.27465 -0.2309,4.22751 0.6596,3.69317 0.66,-0.39608 0.5251,0.12762 -0.2999,1.16377 -0.8742,1.09798 -0.9785,1.57062 -0.25,1.13294 0.9994,-0.60042 1.25,110.03878 1.25,551.8671 0,307.7085 -0.3807,552.3827 -0.859,552.0871 -0.4725,-0.292 -0.6763,1.1279 -0.4529,3.1552 0.5378,4.8799 -2.1687,17.9392 -5.3805,25.9622 -3.5636,8.9016 -8.0627,16.9875 -9.8293,17.6654 -0.813,0.312 -1.4783,1.352 -1.4783,2.3112 0,0.9591 -1.2375,2.8057 -2.75,4.1037 -1.5125,1.2979 -2.075,2.0159 -1.25,1.5956 1.288,-0.6563 1.3073,-0.5268 0.1367,0.9166 -0.7498,0.9246 -1.7735,1.4275 -2.2748,1.1177 -0.5013,-0.3099 -0.7878,-0.1785 -0.6367,0.2919 0.1512,0.4704 -2.3127,3.5084 -5.4752,6.751 -3.1625,3.2427 -5.75,5.4911 -5.75,4.9966 0,-0.4946 -0.7005,0.1009 -1.5567,1.3233 -0.8562,1.2224 -2.2062,2.2225 -3,2.2225 -0.7938,0 -1.4433,0.4072 -1.4433,0.905 0,3.04 -30.1113,16.3803 -32.9763,14.6096 -0.563,-0.3479 -1.0237,-0.1073 -1.0237,0.5348 0,0.7459 -0.9027,0.9409 -2.5,0.54 -1.5185,-0.3812 -2.5,-0.2006 -2.5,0.4598 0,0.6914 -1.6389,0.9164 -4.5022,0.6181 -2.4762,-0.2581 -4.7581,-0.055 -5.0708,0.4508 -0.91,1.4725 -954.18862,1.0303 -954.78963,-0.4428 -0.35393,-0.8676 -0.50015,-0.855 -0.55842,0.048 -0.0621,0.9618 -72.56294,1.2293 -339.13867,1.2511 -191.18167,0.016 -338.82597,-0.3503 -338.52376,-0.8393 z M 1008,1580.2345 v -34.7752 l 13.25,0.1453 c 7.2875,0.08 14.5129,0.2016 16.0564,0.2704 l 2.8063,0.125 -0.1189,20.75 c -0.065,11.4125 -0.091,26.9375 -0.056,34.5 l 0.063,13.75 400.25,-0.026 400.25,-0.026 7,-2.5196 c 3.85,-1.3857 7.5431,-2.5741 8.207,-2.6408 0.6638,-0.067 1.4481,-0.7499 1.7429,-1.518 0.2948,-0.7682 0.9246,-1.1566 1.3995,-0.8631 0.475,0.2936 2.3066,-1.2619 4.0703,-3.4566 1.7782,-2.2127 3.6928,-3.6898 4.298,-3.3158 0.6147,0.38 0.808,0.2161 0.4426,-0.3752 -0.3569,-0.5774 -0.01,-1.2965 0.78,-1.598 0.7859,-0.3016 1.9532,-1.5281 2.5941,-2.7255 0.9454,-1.7665 0.9105,-2.0461 -0.1846,-1.4823 -0.7424,0.3821 -0.5693,0.054 0.3847,-0.7282 0.9539,-0.7827 1.4414,-1.7161 1.0833,-2.0742 -0.3581,-0.3581 -0.1403,-0.6511 0.4841,-0.6511 0.6481,0 0.8613,-0.7142 0.4968,-1.664 -0.454,-1.1832 -0.2695,-1.436 0.6385,-0.8748 0.9569,0.5914 1.098,0.225 0.5628,-1.4612 -0.453,-1.4272 -0.3434,-2.0212 0.2996,-1.6238 0.6219,0.3843 0.7957,-0.2077 0.4496,-1.5312 -0.3828,-1.4641 -0.197,-1.9308 0.5781,-1.4517 0.8559,0.5289 1.1483,-113.24 1.166,-453.5936 0.013,-249.86485 0.1322,-500.26923 0.2651,-556.45421 0.1396,-59.01135 -0.1319,-101.92368 -0.6427,-101.60795 -0.4864,0.30061 -0.6804,-0.8436 -0.431,-2.54268 0.2494,-1.69908 0.085,-2.86144 -0.3656,-2.58303 -0.7333,0.45318 -1.2154,-1.92349 -1.0877,-5.36183 0.026,-0.6875 -0.3802,-1.25 -0.9015,-1.25 -0.5214,0 -0.6698,-0.45 -0.3299,-1 0.3399,-0.55 0.1556,-1 -0.4096,-1 -0.5652,0 -0.8247,-0.5625 -0.5768,-1.25 0.248,-0.6875 -0.4801,-2.375 -1.6181,-3.75 -1.138,-1.375 -1.7355,-1.86797 -1.3278,-1.09549 0.4931,0.9343 0.3493,1.16226 -0.4295,0.6809 -0.644,-0.39798 -0.916,-1.13587 -0.6046,-1.63974 0.3114,-0.50388 -1.1438,-2.63012 -3.2337,-4.72498 -2.825,-2.83161 -3.1585,-3.01282 -1.2999,-0.70629 1.375,1.7064 0.5875,1.1202 -1.75,-1.30267 -2.3375,-2.42287 -4.25,-4.05068 -4.25,-3.61735 0,0.43333 -0.7084,-0.0856 -1.5742,-1.15325 -0.8657,-1.06762 -1.2924,-1.38378 -0.948,-0.70258 0.4115,0.81405 0.096,1.03519 -0.9201,0.64521 -0.8504,-0.32633 -1.3004,-0.99102 -1,-1.47709 0.3004,-0.48607 -0.226,-0.58744 -1.1698,-0.22528 -1.1564,0.44376 -1.4825,0.28072 -1,-0.5 0.4678,-0.75689 0.178,-0.95204 -0.836,-0.56295 -0.8535,0.32755 -1.5519,0.19382 -1.5519,-0.29717 0,-0.49098 -0.7875,-1.0512 -1.75,-1.24492 -0.9625,-0.19372 -182.9875,-0.51735 -404.5,-0.71918 L 1040,432.99021 V 467.99511 503 h -16.062 -16.062 l 0.2151,-15.5 c 0.1448,-10.43771 0.5733,-15.505 1.312,-15.51531 0.774,-0.0108 0.7811,-0.23161 0.024,-0.75 -1.3798,-0.94507 -1.3607,-6.22983 0.023,-6.25 0.7049,-0.0103 0.6943,-0.25676 -0.032,-0.75 -0.5954,-0.40408 -1.0924,-2.30969 -1.1044,-4.23469 -0.012,-1.925 -0.088,-8.78639 -0.1676,-15.24754 L 1008,433.00493 607,432.75246 c -220.55001,-0.13885 -401.00001,0.0647 -401,0.45223 0,0.71146 -6.86074,2.37283 -8.25,1.99778 -0.4125,-0.11136 -0.75,0.29567 -0.75,0.90452 0,0.60884 -0.69837,0.839 -1.55194,0.51145 -1.01395,-0.38909 -1.30374,-0.19394 -0.83595,0.56295 0.4825,0.78072 0.15641,0.94376 -1,0.5 -1.01928,-0.39113 -1.46793,-0.25712 -1.10503,0.33006 0.33602,0.5437 -0.13814,0.98855 -1.05371,0.98855 -2.12203,0 -7.56993,4.53133 -6.64792,5.52946 0.382,0.41354 -0.65545,0.43392 -2.30545,0.0453 -2.8974,-0.68246 -2.9316,-0.65053 -1,0.93354 1.99312,1.63452 1.99287,1.63867 -0.0726,1.20596 -1.61928,-0.33924 -2.02913,0.0273 -1.87399,1.67578 0.10922,1.16049 -0.75812,2.93653 -1.92743,3.94676 -1.16931,1.01022 -1.45101,1.53935 -0.62601,1.17584 0.825,-0.36351 0.62649,0.0474 -0.44113,0.91322 -1.06762,0.86579 -1.51762,1.58105 -1,1.58947 0.51762,0.008 0.27529,0.43635 -0.53851,0.95094 -0.8138,0.5146 -1.5535,2.40427 -1.64377,4.19928 -0.0903,1.79501 -0.66117,3.42933 -1.26865,3.63182 -0.63707,0.21236 -0.84775,1.39115 -0.49781,2.78541 0.38209,1.52239 0.17451,2.41724 -0.56074,2.41724 -0.64208,0 -0.91786,0.4038 -0.61284,0.89734 0.30502,0.49354 0.56059,250.21945 0.56792,554.94644 0.009,379.6482 0.33811,554.2499 1.04511,554.6868 0.56748,0.3508 0.75815,1.4998 0.42371,2.5536 -0.36353,1.1454 -0.13579,1.9158 0.56631,1.9158 0.64591,0 0.91536,0.675 0.59877,1.5 -0.31658,0.825 -0.15385,1.5 0.36163,1.5 0.51548,0 0.68476,0.6579 0.37618,1.4621 -0.3211,0.8367 0.5865,2.5256 2.12209,3.9487 1.47572,1.3677 2.41203,2.9253 2.08067,3.4615 -0.33135,0.5361 0.75813,1.9436 2.42106,3.1277 1.66293,1.1841 2.78588,2.5374 2.49545,3.0074 -0.29044,0.4699 -0.001,1.18 0.64275,1.578 0.77642,0.4799 0.92536,0.2505 0.44215,-0.6809 -0.40077,-0.7725 -0.0832,-0.617 0.70574,0.3455 0.78892,0.9625 1.88158,1.75 2.42813,1.75 0.54655,0 2.15667,1.0778 3.57804,2.3951 1.42137,1.3172 2.83708,2.1422 3.14602,1.8333 0.30895,-0.309 0.56172,-0.01 0.56172,0.664 0,0.6741 0.40939,0.9726 0.90976,0.6634 1.22909,-0.7596 4.20504,0.4494 3.58312,1.4557 -0.2726,0.4411 0.40498,0.5665 1.50574,0.2786 1.11163,-0.2907 2.00138,-0.031 2.00138,0.5835 0,0.8073 108.93497,1.1108 402.5,1.1215 L 1008,1615.0101 Z m 0,-171.3772 V 1352 h 15.9572 15.9571 l 0.053,56.9511 0.053,56.9511 -16.0102,-0.094 -16.0102,-0.094 z m 0.5514,-135.6392 C 1008.2481,1272.9148 1008,1247.3167 1008,1216.3333 V 1160 l 7.25,-0.1184 c 3.9875,-0.065 7.5313,-0.084 7.8752,-0.042 0.3439,0.042 4.2814,0.1548 8.75,0.2502 l 8.1248,0.1735 -0.015,55.6181 c -0.01,30.59 -0.359,56.1589 -0.7791,56.8198 -0.5412,0.8513 -5.0397,1.1821 -15.4333,1.1347 -8.0682,-0.037 -14.9176,-0.3149 -15.2209,-0.6182 z M 212.49178,964.5 c -1e-5,-130.9 0.11617,-184.59861 0.25817,-119.33024 0.14201,65.26836 0.14202,172.36834 2e-5,238.00004 -0.142,65.6316 -0.25818,12.2302 -0.25819,-118.6698 z M 1008,1024 v -57 h 16 16 v 57 57 h -16 -16 z m 0,-192.97461 V 774 l 16.25,0.15019 c 10.3339,0.0955 14.6117,0.4049 11.75,0.84981 l -4.5,0.69961 4.2584,0.1502 4.2584,0.15019 -0.2584,55.75 -0.2584,55.75 -15.75,0.27539 -15.75,0.2754 z m 0,-192.04637 c 0,-36.3894 0.3559,-57.08095 0.9885,-57.47194 0.5437,-0.33603 0.763,-0.0251 0.4873,0.69098 -0.4014,1.04258 2.5922,1.24236 15.0269,1.00289 l 15.5281,-0.29906 -0.047,56.54906 c -0.03,35.76092 -0.4032,56.54905 -1.0154,56.54905 -0.5325,0 -0.9751,-0.5625 -0.9835,-1.25 -0.01,-0.83588 -0.3416,-0.75305 -1,0.25 -0.8753,1.33333 -1.0941,1.33333 -1.9694,0 -0.6584,-1.00305 -0.9897,-1.08588 -1,-0.25 -0.01,0.6875 -0.9419,1.25 -2.0743,1.25 -1.3811,0 -1.8118,-0.41157 -1.3081,-1.25 0.5837,-0.97142 0.4283,-0.98925 -0.697,-0.08 -0.8948,0.72295 -5.3621,1.17 -11.692,1.17 H 1008 Z m -613.66912,-24.729 c 82.95698,-0.14108 218.40698,-0.14107 301,1e-5 82.59302,0.14108 14.71912,0.25651 -150.83088,0.2565 -165.55,-10e-6 -233.1261,-0.11544 -150.16912,-0.25651 z"
         id="path151898" />
      <path
         style="fill:#259c9b"
         d="m 239.34318,1431.7463 c -0.30001,-0.4855 -1.19834,-0.6321 -1.99627,-0.3259 -0.79793,0.3062 -1.205,0.159 -0.90459,-0.3271 0.30041,-0.486 -0.0971,-1.1306 -0.88346,-1.4323 -0.7863,-0.3018 -1.64819,-0.011 -1.9153,0.6452 -0.26712,0.6566 -0.52808,0.2938 -0.57993,-0.8062 -0.0784,-1.6644 -0.25691,-1.7483 -1.06363,-0.5 -0.82843,1.2819 -0.9716,1.2455 -0.98469,-0.25 -0.008,-0.9625 -0.49187,-1.75 -1.07433,-1.75 -0.5856,0 -0.7195,0.5588 -0.29954,1.25 0.41771,0.6875 -1.30223,-0.775 -3.82209,-3.25 -2.51987,-2.475 -4.41502,-4.7865 -4.21147,-5.1367 0.20355,-0.3502 -0.23044,-1.1351 -0.96442,-1.7442 -0.73399,-0.6092 -2.14185,-2.8979 -3.12858,-5.0861 -0.98673,-2.1882 -2.19657,-3.7297 -2.68854,-3.4257 -0.49197,0.3041 -0.68396,-0.6082 -0.42664,-2.0272 0.25732,-1.4191 0.0499,-2.5801 -0.46085,-2.5801 -0.56998,0 -0.93163,-147.3845 -0.93626,-381.5605 -0.005,-228.72276 0.35665,-381.33551 0.90168,-380.99867 0.50006,0.30906 0.67307,-0.34109 0.38445,-1.44478 -0.28862,-1.10368 -0.0256,-2.60821 0.58458,-3.34339 0.61014,-0.73517 0.81325,-1.63277 0.45136,-1.99467 C 214.96276,635.2961 215.17754,635 215.80195,635 c 0.6244,0 0.91337,-0.5783 0.64214,-1.28511 -0.27123,-0.70681 0.41789,-2.263 1.53138,-3.45819 1.11349,-1.19519 2.02453,-2.56345 2.02453,-3.04057 0,-0.47713 1.125,-1.92438 2.5,-3.21613 1.375,-1.29175 2.5,-1.94506 2.5,-1.45181 0,0.49325 0.70579,-0.11083 1.56842,-1.34241 0.86263,-1.23158 1.98763,-1.98015 2.5,-1.66349 0.51237,0.31666 0.93158,0.14733 0.93158,-0.37628 0,-0.52362 0.69837,-1.22002 1.55194,-1.54757 1.04847,-0.40233 1.31712,-0.19374 0.8281,0.64301 -0.3981,0.6812 0.14102,0.48312 1.19807,-0.44019 1.05704,-0.92331 2.25939,-1.71081 2.67189,-1.75 0.4125,-0.0392 0.8625,-0.13677 1,-0.21683 0.91038,-0.5301 301.41189,-0.50445 303.39494,0.0259 l 2.48579,0.6648 -0.0241,406.47747 c -0.0133,223.5626 -0.0427,407.2364 -0.0654,408.164 -0.0385,1.575 -10.06327,1.6784 -151.59689,1.5644 -86.37069,-0.07 -151.79028,-0.5017 -152.10115,-1.0047 z"
         id="path151897" />
      <path
         style="fill:#198c8d"
         d="m 543.14737,1024.7672 -0.0157,-408.26398 -2.31583,-0.65984 C 539.54213,615.48047 608.7,615.25474 694.5,615.34177 l 156,0.15823 5.1076,2.69469 c 2.80918,1.48207 7.16496,4.98296 9.67952,7.77976 8.52399,9.48073 7.87555,-4.72657 7.77095,170.26071 L 872.96526,951.5 908.48263,986.99472 C 928.01718,1006.5168 944,1022.9279 944,1023.4638 c 0,0.5358 -15.86893,16.9632 -35.26429,36.5052 l -35.26428,35.531 0.0291,106.5 c 0.0194,70.9229 -0.30988,106.7454 -0.98571,107.2347 -0.66338,0.4802 -0.66852,0.74 -0.0149,0.75 0.6529,0.01 0.99363,16.7632 0.98164,48.2653 -0.0166,43.6922 -0.18704,48.7384 -1.80397,53.4205 -2.51281,7.2763 -8.44186,13.5958 -16.45894,17.5428 l -6.67598,3.2867 -152.68984,0.2656 -152.68984,0.2656 z M 798,1095.8979 c 1.21572,-0.8683 1.08993,-0.9822 -0.66375,-0.6008 -1.56169,0.3396 -2.31106,-0.093 -2.69316,-1.5539 -0.42395,-1.6212 6.27509,-8.7866 33.62473,-35.9657 l 34.15414,-33.9411 -34.96098,-34.39152 c -19.22854,-18.91532 -35.05289,-34.4035 -35.16523,-34.41818 -0.11233,-0.0147 -0.16941,29.81922 -0.12683,66.2976 0.0426,36.4783 -0.25123,67.3597 -0.65289,68.6252 -0.46072,1.4516 -0.36029,2.0723 0.27205,1.6815 0.55129,-0.3407 1.25485,0.038 1.56346,0.8427 0.30861,0.8042 0.0481,1.7793 -0.57884,2.1668 -0.74974,0.4633 -0.47806,0.9637 0.79368,1.4617 2.6164,1.0246 2.71989,1.0198 4.43362,-0.2043 z"
         id="path151896" />
    </g>
  </g>
</svg>
